{
  "accessors": [
    {
      "bufferView": 2,
      "componentType": 5126,
      "count": 21872,
      "max": [
        29.255353927612305,
        29.255353927612305,
        24.51056480407715
      ],
      "min": [
        -29.255353927612305,
        -29.255353927612305,
        -1.0
      ],
      "type": "VEC3"
    },
    {
      "bufferView": 2,
      "byteOffset": 262464,
      "componentType": 5126,
      "count": 21872,
      "max": [
        0.9996294379234314,
        0.9996294975280762,
        1.0
      ],
      "min": [
        -0.9996294379234314,
        -0.9996294975280762,
        -1.0
      ],
      "type": "VEC3"
    },
    {
      "bufferView": 1,
      "componentType": 5126,
      "count": 21872,
      "max": [
        0.9695724248886108,
        0.9868256449699402
      ],
      "min": [
        0.030172228813171387,
        0.00882953405380249
      ],
      "type": "VEC2"
    },
    {
      "bufferView": 0,
      "componentType": 5125,
      "count": 33696,
      "type": "SCALAR"
    },
    {
      "bufferView": 2,
      "byteOffset": 524928,
      "componentType": 5126,
      "count": 3664,
      "max": [
        22.675621032714844,
        22.675621032714844,
        3.8042261600494385
      ],
      "min": [
        -22.675621032714844,
        -22.675621032714844,
        -5.765500545501709
      ],
      "type": "VEC3"
    },
    {
      "bufferView": 2,
      "byteOffset": 568896,
      "componentType": 5126,
      "count": 3664,
      "max": [
        0.9873589873313904,
        0.9873592257499695,
        1.0
      ],
      "min": [
        -0.9873589873313904,
        -0.9873592257499695,
        -1.0
      ],
      "type": "VEC3"
    },
    {
      "bufferView": 1,
      "byteOffset": 174976,
      "componentType": 5126,
      "count": 3664,
      "max": [
        0.9692376255989075,
        0.9840987324714661
      ],
      "min": [
        0.07501393556594849,
        0.07851314544677734
      ],
      "type": "VEC2"
    },
    {
      "bufferView": 0,
      "byteOffset": 134784,
      "componentType": 5125,
      "count": 5520,
      "type": "SCALAR"
    },
    {
      "bufferView": 2,
      "byteOffset": 612864,
      "componentType": 5126,
      "count": 2800,
      "max": [
        3.290904998779297,
        3.2909069061279297,
        26.35114097595215
      ],
      "min": [
        -17.290904998779297,
        -17.29090690612793,
        -1.0
      ],
      "type": "VEC3"
    },
    {
      "bufferView": 2,
      "byteOffset": 646464,
      "componentType": 5126,
      "count": 2800,
      "max": [
        0.9549713134765625,
        0.9549710154533386,
        1.0
      ],
      "min": [
        -0.9549713134765625,
        -0.9549710154533386,
        -1.0
      ],
      "type": "VEC3"
    },
    {
      "bufferView": 1,
      "byteOffset": 204288,
      "componentType": 5126,
      "count": 2800,
      "max": [
        0.9766154885292053,
        0.9437758922576904
      ],
      "min": [
        0.38749998807907104,
        0.04408979415893555
      ],
      "type": "VEC2"
    },
    {
      "bufferView": 0,
      "byteOffset": 156864,
      "componentType": 5125,
      "count": 4272,
      "type": "SCALAR"
    },
    {
      "bufferView": 2,
      "byteOffset": 680064,
      "componentType": 5126,
      "count": 1113,
      "max": [
        1.082404613494873,
        1.082404613494873,
        0.29083576798439026
      ],
      "min": [
        -1.082404613494873,
        -1.082404613494873,
        -0.18694853782653809
      ],
      "type": "VEC3"
    },
    {
      "bufferView": 2,
      "byteOffset": 693420,
      "componentType": 5126,
      "count": 1113,
      "max": [
        1.0,
        1.0,
        0.9922763109207153
      ],
      "min": [
        -0.9807855486869812,
        -0.9807853698730469,
        -1.0
      ],
      "type": "VEC3"
    },
    {
      "bufferView": 1,
      "byteOffset": 226688,
      "componentType": 5126,
      "count": 1113,
      "max": [
        0.8306992650032043,
        0.9557377696037292
      ],
      "min": [
        0.3897895812988281,
        0.7907654643058777
      ],
      "type": "VEC2"
    },
    {
      "bufferView": 0,
      "byteOffset": 173952,
      "componentType": 5125,
      "count": 1596,
      "type": "SCALAR"
    },
    {
      "bufferView": 2,
      "byteOffset": 706776,
      "componentType": 5126,
      "count": 1444,
      "max": [
        6.815252304077148,
        6.815252780914307,
        6.0
      ],
      "min": [
        -6.815252304077148,
        -6.815252780914307,
        -33.0
      ],
      "type": "VEC3"
    },
    {
      "bufferView": 2,
      "byteOffset": 724104,
      "componentType": 5126,
      "count": 1444,
      "max": [
        0.9983094930648804,
        0.9983095526695251,
        0.9800478219985962
      ],
      "min": [
        -0.9983094930648804,
        -0.9983095526695251,
        -1.0
      ],
      "type": "VEC3"
    },
    {
      "bufferView": 1,
      "byteOffset": 235592,
      "componentType": 5126,
      "count": 1444,
      "max": [
        0.9861136674880981,
        0.986220121383667
      ],
      "min": [
        0.38749998807907104,
        0.04109674692153931
      ],
      "type": "VEC2"
    },
    {
      "bufferView": 0,
      "byteOffset": 180336,
      "componentType": 5125,
      "count": 2160,
      "type": "SCALAR"
    },
    {
      "bufferView": 2,
      "byteOffset": 741432,
      "componentType": 5126,
      "count": 401,
      "max": [
        4.939053058624268,
        4.939053058624268,
        29.0
      ],
      "min": [
        -4.939053058624268,
        -4.939053058624268,
        -1.0
      ],
      "type": "VEC3"
    },
    {
      "bufferView": 2,
      "byteOffset": 746244,
      "componentType": 5126,
      "count": 401,
      "max": [
        0.9958025813102722,
        0.995802640914917,
        1.0
      ],
      "min": [
        -0.9958025813102722,
        -0.995802640914917,
        -1.0
      ],
      "type": "VEC3"
    },
    {
      "bufferView": 1,
      "byteOffset": 247144,
      "componentType": 5126,
      "count": 401,
      "max": [
        0.8621904850006104,
        0.981813371181488
      ],
      "min": [
        0.430929958820343,
        0.7635009288787842
      ],
      "type": "VEC2"
    },
    {
      "bufferView": 0,
      "byteOffset": 188976,
      "componentType": 5125,
      "count": 624,
      "type": "SCALAR"
    },
    {
      "bufferView": 2,
      "byteOffset": 751056,
      "componentType": 5126,
      "count": 419,
      "max": [
        4.939053058624268,
        4.939053058624268,
        27.996692657470703
      ],
      "min": [
        -4.939053058624268,
        -4.939053058624268,
        -2.003305435180664
      ],
      "type": "VEC3"
    },
    {
      "bufferView": 2,
      "byteOffset": 756084,
      "componentType": 5126,
      "count": 419,
      "max": [
        0.9958025813102722,
        0.995802640914917,
        1.0
      ],
      "min": [
        -0.9958025813102722,
        -0.995802640914917,
        -1.0
      ],
      "type": "VEC3"
    },
    {
      "bufferView": 1,
      "byteOffset": 250352,
      "componentType": 5126,
      "count": 419,
      "max": [
        0.8594205975532532,
        0.9867831468582153
      ],
      "min": [
        0.40400415658950806,
        0.762499988079071
      ],
      "type": "VEC2"
    },
    {
      "bufferView": 0,
      "byteOffset": 191472,
      "componentType": 5125,
      "count": 624,
      "type": "SCALAR"
    },
    {
      "bufferView": 2,
      "byteOffset": 761112,
      "componentType": 5126,
      "count": 382,
      "max": [
        4.939053058624268,
        4.939053058624268,
        26.99338722229004
      ],
      "min": [
        -4.939053058624268,
        -4.939053058624268,
        -3.006610870361328
      ],
      "type": "VEC3"
    },
    {
      "bufferView": 2,
      "byteOffset": 765696,
      "componentType": 5126,
      "count": 382,
      "max": [
        0.9958025813102722,
        0.995802640914917,
        1.0
      ],
      "min": [
        -0.9958025813102722,
        -0.995802640914917,
        -0.707107424736023
      ],
      "type": "VEC3"
    },
    {
      "bufferView": 1,
      "byteOffset": 253704,
      "componentType": 5126,
      "count": 382,
      "max": [
        0.8597879409790039,
        0.9758036136627197
      ],
      "min": [
        0.39308202266693115,
        0.7805896401405334
      ],
      "type": "VEC2"
    },
    {
      "bufferView": 0,
      "byteOffset": 193968,
      "componentType": 5125,
      "count": 576,
      "type": "SCALAR"
    },
    {
      "bufferView": 2,
      "byteOffset": 770280,
      "componentType": 5126,
      "count": 1652,
      "max": [
        4.964026927947998,
        4.964027404785156,
        -3.006610870361328
      ],
      "min": [
        -4.964026927947998,
        -4.964027404785156,
        -9.242358207702637
      ],
      "type": "VEC3"
    },
    {
      "bufferView": 2,
      "byteOffset": 790104,
      "componentType": 5126,
      "count": 1652,
      "max": [
        0.9807855486869812,
        0.9807854294776917,
        0.7727274298667908
      ],
      "min": [
        -0.9807855486869812,
        -0.9807854294776917,
        -1.0
      ],
      "type": "VEC3"
    },
    {
      "bufferView": 1,
      "byteOffset": 256760,
      "componentType": 5126,
      "count": 1652,
      "max": [
        0.978294849395752,
        0.9861589670181274
      ],
      "min": [
        0.3897895812988281,
        0.01258009672164917
      ],
      "type": "VEC2"
    },
    {
      "bufferView": 0,
      "byteOffset": 196272,
      "componentType": 5125,
      "count": 2496,
      "type": "SCALAR"
    }
  ],
  "asset": {
    "extras": {
      "author": "MRowa (https://sketchfab.com/MRowa)",
      "license": "CC-BY-SA-4.0 (http://creativecommons.org/licenses/by-sa/4.0/)",
      "source": "https://sketchfab.com/3d-models/mining-station-6f1e3c11f11546a9a5f7be07b07e9f5f",
      "title": "Mining Station"
    },
    "generator": "Sketchfab-12.66.0",
    "version": "2.0"
  },
  "bufferViews": [
    {
      "buffer": 0,
      "byteLength": 206256,
      "name": "floatBufferViews",
      "target": 34963
    },
    {
      "buffer": 0,
      "byteLength": 269976,
      "byteOffset": 206256,
      "byteStride": 8,
      "name": "floatBufferViews",
      "target": 34962
    },
    {
      "buffer": 0,
      "byteLength": 809928,
      "byteOffset": 476232,
      "byteStride": 12,
      "name": "floatBufferViews",
      "target": 34962
    }
  ],
  "buffers": [
    {
      "byteLength": 1286160,
      "uri": "scene.bin"
    }
  ],
  "images": [
    {
      "uri": "textures/Placeable_baseColor.png"
    },
    {
      "uri": "textures/Placeable_metallicRoughness.png"
    },
    {
      "uri": "textures/Placeable_emissive.png"
    }
  ],
  "materials": [
    {
      "doubleSided": true,
      "emissiveFactor": [
        1.0,
        1.0,
        1.0
      ],
      "emissiveTexture": {
        "index": 2
      },
      "name": "Placeable",
      "pbrMetallicRoughness": {
        "baseColorTexture": {
          "index": 0
        },
        "metallicRoughnessTexture": {
          "index": 1
        },
        "roughnessFactor": 0.75
      }
    }
  ],
  "meshes": [
    {
      "name": "MiningStation_Body_Placeable_0",
      "primitives": [
        {
          "attributes": {
            "NORMAL": 1,
            "POSITION": 0,
            "TEXCOORD_0": 2
          },
          "indices": 3,
          "material": 0,
          "mode": 4
        }
      ]
    },
    {
      "name": "MiningStation_Head_Placeable_0",
      "primitives": [
        {
          "attributes": {
            "NORMAL": 5,
            "POSITION": 4,
            "TEXCOORD_0": 6
          },
          "indices": 7,
          "material": 0,
          "mode": 4
        }
      ]
    },
    {
      "name": "MiningStation_Elevator_Placeable_0",
      "primitives": [
        {
          "attributes": {
            "NORMAL": 9,
            "POSITION": 8,
            "TEXCOORD_0": 10
          },
          "indices": 11,
          "material": 0,
          "mode": 4
        }
      ]
    },
    {
      "name": "MiningStation_Roof_Placeable_0",
      "primitives": [
        {
          "attributes": {
            "NORMAL": 13,
            "POSITION": 12,
            "TEXCOORD_0": 14
          },
          "indices": 15,
          "material": 0,
          "mode": 4
        }
      ]
    },
    {
      "name": "MiningStation_DrillController_Placeable_0",
      "primitives": [
        {
          "attributes": {
            "NORMAL": 17,
            "POSITION": 16,
            "TEXCOORD_0": 18
          },
          "indices": 19,
          "material": 0,
          "mode": 4
        }
      ]
    },
    {
      "name": "MiningStation_DrillPart1_Placeable_0",
      "primitives": [
        {
          "attributes": {
            "NORMAL": 21,
            "POSITION": 20,
            "TEXCOORD_0": 22
          },
          "indices": 23,
          "material": 0,
          "mode": 4
        }
      ]
    },
    {
      "name": "MiningStation_DrillPart2_Placeable_0",
      "primitives": [
        {
          "attributes": {
            "NORMAL": 25,
            "POSITION": 24,
            "TEXCOORD_0": 26
          },
          "indices": 27,
          "material": 0,
          "mode": 4
        }
      ]
    },
    {
      "name": "MiningStation_DrillPart3_Placeable_0",
      "primitives": [
        {
          "attributes": {
            "NORMAL": 29,
            "POSITION": 28,
            "TEXCOORD_0": 30
          },
          "indices": 31,
          "material": 0,
          "mode": 4
        }
      ]
    },
    {
      "name": "MiningStation_DrillHead_Placeable_0",
      "primitives": [
        {
          "attributes": {
            "NORMAL": 33,
            "POSITION": 32,
            "TEXCOORD_0": 34
          },
          "indices": 35,
          "material": 0,
          "mode": 4
        }
      ]
    }
  ],
  "nodes": [
    {
      "children": [
        1
      ],
      "matrix": [
        1.0,
        0.0,
        0.0,
        0.0,
        0.0,
        2.220446049250313e-16,
        -1.0,
        0.0,
        0.0,
        1.0,
        2.220446049250313e-16,
        0.0,
        0.0,
        0.0,
        0.0,
        1.0
      ],
      "name": "Sketchfab_model"
    },
    {
      "children": [
        2
      ],
      "matrix": [
        1.0,
        0.0,
        0.0,
        0.0,
        0.0,
        0.0,
        1.0,
        0.0,
        0.0,
        -1.0,
        0.0,
        0.0,
        0.0,
        0.0,
        0.0,
        1.0
      ],
      "name": "b2a6bbc5167140fead80e37f5187db31.fbx"
    },
    {
      "children": [
        3
      ],
      "name": "RootNode"
    },
    {
      "children": [
        4,
        6,
        8,
        10,
        12
      ],
      "matrix": [
        100.0,
        0.0,
        0.0,
        0.0,
        0.0,
        -1.629206793918314e-05,
        -99.99999999999868,
        0.0,
        0.0,
        99.99999999999868,
        -1.629206793918314e-05,
        0.0,
        0.0,
        0.0,
        0.0,
        1.0
      ],
      "name": "MiningStation"
    },
    {
      "children": [
        5
      ],
      "matrix": [
        1.0,
        0.0,
        0.0,
        0.0,
        0.0,
        1.0,
        -2.646977960169688e-23,
        0.0,
        0.0,
        2.646977960169688e-23,
        1.0,
        0.0,
        0.0,
        0.0,
        0.0,
        1.0
      ],
      "name": "MiningStation_Body"
    },
    {
      "mesh": 0,
      "name": "MiningStation_Body_Placeable_0"
    },
    {
      "children": [
        7
      ],
      "matrix": [
        1.0,
        0.0,
        0.0,
        0.0,
        0.0,
        1.0,
        -2.646977960169688e-23,
        0.0,
        0.0,
        2.646977960169688e-23,
        1.0,
        0.0,
        0.0,
        0.0,
        30.0,
        1.0
      ],
      "name": "MiningStation_Head"
    },
    {
      "mesh": 1,
      "name": "MiningStation_Head_Placeable_0"
    },
    {
      "children": [
        9
      ],
      "matrix": [
        1.0,
        0.0,
        0.0,
        0.0,
        0.0,
        1.0,
        -2.646977960169688e-23,
        0.0,
        0.0,
        2.646977960169688e-23,
        1.0,
        0.0,
        7.0,
        7.0,
        6.0,
        1.0
      ],
      "name": "MiningStation_Elevator"
    },
    {
      "mesh": 2,
      "name": "MiningStation_Elevator_Placeable_0"
    },
    {
      "children": [
        11
      ],
      "matrix": [
        15.0,
        0.0,
        0.0,
        0.0,
        0.0,
        15.0,
        0.0,
        0.0,
        0.0,
        0.0,
        15.0,
        0.0,
        0.0,
        8.470329472543003e-22,
        35.80422592163086,
        1.0
      ],
      "name": "MiningStation_Roof"
    },
    {
      "mesh": 3,
      "name": "MiningStation_Roof_Placeable_0"
    },
    {
      "children": [
        13,
        14
      ],
      "matrix": [
        1.0,
        0.0,
        0.0,
        0.0,
        0.0,
        1.0,
        -2.646977960169688e-23,
        0.0,
        0.0,
        2.646977960169688e-23,
        1.0,
        0.0,
        0.0,
        0.0,
        33.0,
        1.0
      ],
      "name": "MiningStation_DrillController"
    },
    {
      "mesh": 4,
      "name": "MiningStation_DrillController_Placeable_0"
    },
    {
      "children": [
        15,
        16
      ],
      "matrix": [
        1.0,
        0.0,
        0.0,
        0.0,
        0.0,
        1.0,
        -2.646977960169688e-23,
        0.0,
        0.0,
        2.646977960169688e-23,
        1.0,
        0.0,
        0.0,
        3.1763735522036263e-22,
        -38.0,
        1.0
      ],
      "name": "MiningStation_DrillPart1"
    },
    {
      "mesh": 5,
      "name": "MiningStation_DrillPart1_Placeable_0"
    },
    {
      "children": [
        17,
        18
      ],
      "matrix": [
        0.9000000357627869,
        0.0,
        0.0,
        0.0,
        0.0,
        0.9000000357627869,
        -2.6469779601696874e-23,
        0.0,
        0.0,
        2.941086505542486e-23,
        1.0,
        0.0,
        0.0,
        -1.0587911840678754e-22,
        -5.0,
        1.0
      ],
      "name": "MiningStation_DrillPart2"
    },
    {
      "mesh": 6,
      "name": "MiningStation_DrillPart2_Placeable_0"
    },
    {
      "children": [
        19,
        20
      ],
      "matrix": [
        0.9000000357627869,
        0.0,
        0.0,
        0.0,
        0.0,
        0.9000000357627869,
        0.0,
        0.0,
        0.0,
        0.0,
        0.9999998807907104,
        0.0,
        0.0,
        -2.117582368135751e-22,
        -4.999999046325684,
        1.0
      ],
      "name": "MiningStation_DrillPart3"
    },
    {
      "mesh": 7,
      "name": "MiningStation_DrillPart3_Placeable_0"
    },
    {
      "children": [
        21
      ],
      "matrix": [
        0.9999995827674866,
        0.0,
        0.0,
        0.0,
        0.0,
        0.9999995827674866,
        0.0,
        0.0,
        0.0,
        0.0,
        0.9999997019767761,
        0.0,
        0.0,
        0.0,
        9.5367431640625e-07,
        1.0
      ],
      "name": "MiningStation_DrillHead"
    },
    {
      "mesh": 8,
      "name": "MiningStation_DrillHead_Placeable_0"
    }
  ],
  "samplers": [
    {
      "magFilter": 9728,
      "minFilter": 9728,
      "wrapS": 10497,
      "wrapT": 10497
    }
  ],
  "scene": 0,
  "scenes": [
    {
      "name": "Sketchfab_Scene",
      "nodes": [
        0
      ]
    }
  ],
  "textures": [
    {
      "sampler": 0,
      "source": 0
    },
    {
      "sampler": 0,
      "source": 1
    },
    {
      "sampler": 0,
      "source": 2
    }
  ]
}
